<svg class="diagram-root" style="background: #f5f6f6" xmlns="http://www.w3.org/2000/svg" xmlns:xlink="http://www.w3.org/1999/xlink"><style>.diagram-root { font-family: "Helvetica Neue", sans-serif; font-size: 12px; } .t { overflow: visible; } .t-bg { y: 40; fill: #fff;   } .th { fill: #005aa0;   } .tht { fill: #fff; font-size: 14px;  } .tf { fill: #323c46; overflow: visible; } .tf.pk { fill: #005aa0; font-weight: bold; } .tf.fk { font-weight: bold; } .ty { fill: #adb1b5; font-weight: normal; text-anchor: end; } .r { fill: transparent; stroke: #c3c3c3; stroke-width: 1; } .l { stroke: 1; } .i { fill: #c2c7ce; stroke: #c2c7ce; } .i.ix { fill: #afb3b6; stroke: #000; } .fa { fill: transparent; overflow: visible; } .fa .bg.hover { fill: #f7f7f7; } .c { cy: 12; r: 4; stroke: #d2d2dc; fill: #d2d2dc; } .hr { fill: transparent; stroke: #323c46; stroke-opacity: 0.035; stroke-width: 13; } .dc { stroke: #fa5a3c; fill: #fa5a3c; } .x { stroke: white; stroke-width: 1; } .hl .th { fill: #1b9bff; } .hl .tht {  } .fhl .bg { fill: #e7f4ff; } .fhls .bg {  } .r.hl { stroke: #1b9bff; } .dim { opacity: 0.25; }</style><g class="drawing-wrapper" transform="translate(-207, -44) scale(1,1)"><g class="rs"><path d="M 1082.15 182 m -1, 0 a 1,1 0 1,0 2,0 a 1,1 0 1,0 -2,0 M 1082.15 182 m -0.5, 0 a 0.5,0.5 0 1,0 1,0 a 0.5,0.5 0 1,0 -1,0  M1082.15 182 L1082.15 182 1089.15 182 M 1082.15 188 m -1, 0 a 1,1 0 1,0 2,0 a 1,1 0 1,0 -2,0 M 1082.15 188 m -0.5, 0 a 0.5,0.5 0 1,0 1,0 a 0.5,0.5 0 1,0 -1,0  M1082.15 188 L1082.15 188 1089.15 182 1082.15 176 M 1082.15 176 m -1, 0 a 1,1 0 1,0 2,0 a 1,1 0 1,0 -2,0 M 1082.15 176 m -0.5, 0 a 0.5,0.5 0 1,0 1,0 a 0.5,0.5 0 1,0 -1,0  M 1091.65 182 m -2.5, 0 a 2.5,2.5 0 1,0 5,0 a 2.5,2.5 0 1,0 -5,0 M1094.15 182 Q 1118.12 182, 1142.08 182.5 T 1190 183 M 1202 183 m -1, 0 a 1,1 0 1,0 2,0 a 1,1 0 1,0 -2,0 M 1202 183 m -0.5, 0 a 0.5,0.5 0 1,0 1,0 a 0.5,0.5 0 1,0 -1,0  M1202 183 L1202 183 1190 183 M1196 189 L1196 189 1196 177" id="h1480738937" class="r"></path><path d="M 1074.49 639 m -1, 0 a 1,1 0 1,0 2,0 a 1,1 0 1,0 -2,0 M 1074.49 639 m -0.5, 0 a 0.5,0.5 0 1,0 1,0 a 0.5,0.5 0 1,0 -1,0  M1074.49 639 L1074.49 639 1081.49 639 M 1074.49 645 m -1, 0 a 1,1 0 1,0 2,0 a 1,1 0 1,0 -2,0 M 1074.49 645 m -0.5, 0 a 0.5,0.5 0 1,0 1,0 a 0.5,0.5 0 1,0 -1,0  M1074.49 645 L1074.49 645 1081.49 639 1074.49 633 M 1074.49 633 m -1, 0 a 1,1 0 1,0 2,0 a 1,1 0 1,0 -2,0 M 1074.49 633 m -0.5, 0 a 0.5,0.5 0 1,0 1,0 a 0.5,0.5 0 1,0 -1,0  M 1083.99 639 m -2.5, 0 a 2.5,2.5 0 1,0 5,0 a 2.5,2.5 0 1,0 -5,0 M1086.49 639 Q 1109.37 639, 1132.24 639 T 1178 639 M 1190 639 m -1, 0 a 1,1 0 1,0 2,0 a 1,1 0 1,0 -2,0 M 1190 639 m -0.5, 0 a 0.5,0.5 0 1,0 1,0 a 0.5,0.5 0 1,0 -1,0  M1190 639 L1190 639 1178 639 M1184 645 L1184 645 1184 633" id="h3475528290" class="r"></path><path d="M 771.16 206 m -1, 0 a 1,1 0 1,0 2,0 a 1,1 0 1,0 -2,0 M 771.16 206 m -0.5, 0 a 0.5,0.5 0 1,0 1,0 a 0.5,0.5 0 1,0 -1,0  M771.16 206 L771.16 206 778.16 206 M 771.16 212 m -1, 0 a 1,1 0 1,0 2,0 a 1,1 0 1,0 -2,0 M 771.16 212 m -0.5, 0 a 0.5,0.5 0 1,0 1,0 a 0.5,0.5 0 1,0 -1,0  M771.16 212 L771.16 212 778.16 206 771.16 200 M 771.16 200 m -1, 0 a 1,1 0 1,0 2,0 a 1,1 0 1,0 -2,0 M 771.16 200 m -0.5, 0 a 0.5,0.5 0 1,0 1,0 a 0.5,0.5 0 1,0 -1,0  M 780.66 206 m -2.5, 0 a 2.5,2.5 0 1,0 5,0 a 2.5,2.5 0 1,0 -5,0 M783.16 206 Q 803.62 206, 824.08 169 T 865 132 M 877 132 m -1, 0 a 1,1 0 1,0 2,0 a 1,1 0 1,0 -2,0 M 877 132 m -0.5, 0 a 0.5,0.5 0 1,0 1,0 a 0.5,0.5 0 1,0 -1,0  M877 132 L877 132 865 132 M871 138 L871 138 871 126" id="h1640493524" class="r"></path><path d="M 424.81 513 m -1, 0 a 1,1 0 1,0 2,0 a 1,1 0 1,0 -2,0 M 424.81 513 m -0.5, 0 a 0.5,0.5 0 1,0 1,0 a 0.5,0.5 0 1,0 -1,0  M424.81 513 L424.81 513 431.81 513 M 424.81 519 m -1, 0 a 1,1 0 1,0 2,0 a 1,1 0 1,0 -2,0 M 424.81 519 m -0.5, 0 a 0.5,0.5 0 1,0 1,0 a 0.5,0.5 0 1,0 -1,0  M424.81 519 L424.81 519 431.81 513 424.81 507 M 424.81 507 m -1, 0 a 1,1 0 1,0 2,0 a 1,1 0 1,0 -2,0 M 424.81 507 m -0.5, 0 a 0.5,0.5 0 1,0 1,0 a 0.5,0.5 0 1,0 -1,0  M 434.31 513 m -2.5, 0 a 2.5,2.5 0 1,0 5,0 a 2.5,2.5 0 1,0 -5,0 M436.81 513 Q 465.61 513, 494.41 322 T 552 131 M 564 131 m -1, 0 a 1,1 0 1,0 2,0 a 1,1 0 1,0 -2,0 M 564 131 m -0.5, 0 a 0.5,0.5 0 1,0 1,0 a 0.5,0.5 0 1,0 -1,0  M564 131 L564 131 552 131 M558 137 L558 137 558 125" id="h556085257" class="r"></path><path d="M 424.81 538 m -1, 0 a 1,1 0 1,0 2,0 a 1,1 0 1,0 -2,0 M 424.81 538 m -0.5, 0 a 0.5,0.5 0 1,0 1,0 a 0.5,0.5 0 1,0 -1,0  M424.81 538 L424.81 538 431.81 538 M 424.81 544 m -1, 0 a 1,1 0 1,0 2,0 a 1,1 0 1,0 -2,0 M 424.81 544 m -0.5, 0 a 0.5,0.5 0 1,0 1,0 a 0.5,0.5 0 1,0 -1,0  M424.81 544 L424.81 544 431.81 538 424.81 532 M 424.81 532 m -1, 0 a 1,1 0 1,0 2,0 a 1,1 0 1,0 -2,0 M 424.81 532 m -0.5, 0 a 0.5,0.5 0 1,0 1,0 a 0.5,0.5 0 1,0 -1,0  M 434.31 538 m -2.5, 0 a 2.5,2.5 0 1,0 5,0 a 2.5,2.5 0 1,0 -5,0 M436.81 538 Q 543.11 538, 649.41 538.5 T 862 539 M 874 539 m -1, 0 a 1,1 0 1,0 2,0 a 1,1 0 1,0 -2,0 M 874 539 m -0.5, 0 a 0.5,0.5 0 1,0 1,0 a 0.5,0.5 0 1,0 -1,0  M874 539 L874 539 862 539 M868 545 L868 545 868 533" id="h4182562984" class="r"></path><path d="M 424.81 563 m -1, 0 a 1,1 0 1,0 2,0 a 1,1 0 1,0 -2,0 M 424.81 563 m -0.5, 0 a 0.5,0.5 0 1,0 1,0 a 0.5,0.5 0 1,0 -1,0  M424.81 563 L424.81 563 431.81 563 M 424.81 569 m -1, 0 a 1,1 0 1,0 2,0 a 1,1 0 1,0 -2,0 M 424.81 569 m -0.5, 0 a 0.5,0.5 0 1,0 1,0 a 0.5,0.5 0 1,0 -1,0  M424.81 569 L424.81 569 431.81 563 424.81 557 M 424.81 557 m -1, 0 a 1,1 0 1,0 2,0 a 1,1 0 1,0 -2,0 M 424.81 557 m -0.5, 0 a 0.5,0.5 0 1,0 1,0 a 0.5,0.5 0 1,0 -1,0  M 434.31 563 m -2.5, 0 a 2.5,2.5 0 1,0 5,0 a 2.5,2.5 0 1,0 -5,0 M436.81 563 Q 464.86 563, 492.91 510.5 T 549 458 M 561 458 m -1, 0 a 1,1 0 1,0 2,0 a 1,1 0 1,0 -2,0 M 561 458 m -0.5, 0 a 0.5,0.5 0 1,0 1,0 a 0.5,0.5 0 1,0 -1,0  M561 458 L561 458 549 458 M555 464 L555 464 555 452" id="h1585382647" class="r"></path><path d="M 424.81 588 m -1, 0 a 1,1 0 1,0 2,0 a 1,1 0 1,0 -2,0 M 424.81 588 m -0.5, 0 a 0.5,0.5 0 1,0 1,0 a 0.5,0.5 0 1,0 -1,0  M424.81 588 L424.81 588 431.81 588 M 424.81 594 m -1, 0 a 1,1 0 1,0 2,0 a 1,1 0 1,0 -2,0 M 424.81 594 m -0.5, 0 a 0.5,0.5 0 1,0 1,0 a 0.5,0.5 0 1,0 -1,0  M424.81 594 L424.81 594 431.81 588 424.81 582 M 424.81 582 m -1, 0 a 1,1 0 1,0 2,0 a 1,1 0 1,0 -2,0 M 424.81 582 m -0.5, 0 a 0.5,0.5 0 1,0 1,0 a 0.5,0.5 0 1,0 -1,0  M 434.31 588 m -2.5, 0 a 2.5,2.5 0 1,0 5,0 a 2.5,2.5 0 1,0 -5,0 M436.81 588 Q 466.36 588, 495.91 612 T 555 636 M 567 636 m -1, 0 a 1,1 0 1,0 2,0 a 1,1 0 1,0 -2,0 M 567 636 m -0.5, 0 a 0.5,0.5 0 1,0 1,0 a 0.5,0.5 0 1,0 -1,0  M567 636 L567 636 555 636 M561 642 L561 642 561 630" id="h840439881" class="r"></path><path d="M 876 352 m -1, 0 a 1,1 0 1,0 2,0 a 1,1 0 1,0 -2,0 M 876 352 m -0.5, 0 a 0.5,0.5 0 1,0 1,0 a 0.5,0.5 0 1,0 -1,0  M876 352 L876 352 869 352 M 876 358 m -1, 0 a 1,1 0 1,0 2,0 a 1,1 0 1,0 -2,0 M 876 358 m -0.5, 0 a 0.5,0.5 0 1,0 1,0 a 0.5,0.5 0 1,0 -1,0  M876 358 L876 358 869 352 876 346 M 876 346 m -1, 0 a 1,1 0 1,0 2,0 a 1,1 0 1,0 -2,0 M 876 346 m -0.5, 0 a 0.5,0.5 0 1,0 1,0 a 0.5,0.5 0 1,0 -1,0  M 866.5 352 m -2.5, 0 a 2.5,2.5 0 1,0 5,0 a 2.5,2.5 0 1,0 -5,0 M864 352 C 814 352, 813.4 132, 865 132 M 877 132 m -1, 0 a 1,1 0 1,0 2,0 a 1,1 0 1,0 -2,0 M 877 132 m -0.5, 0 a 0.5,0.5 0 1,0 1,0 a 0.5,0.5 0 1,0 -1,0  M877 132 L877 132 865 132 M871 138 L871 138 871 126" id="h1583878840" class="r"></path><path d="M 876 377 m -1, 0 a 1,1 0 1,0 2,0 a 1,1 0 1,0 -2,0 M 876 377 m -0.5, 0 a 0.5,0.5 0 1,0 1,0 a 0.5,0.5 0 1,0 -1,0  M876 377 L876 377 869 377 M 876 383 m -1, 0 a 1,1 0 1,0 2,0 a 1,1 0 1,0 -2,0 M 876 383 m -0.5, 0 a 0.5,0.5 0 1,0 1,0 a 0.5,0.5 0 1,0 -1,0  M876 383 L876 383 869 377 876 371 M 876 371 m -1, 0 a 1,1 0 1,0 2,0 a 1,1 0 1,0 -2,0 M 876 371 m -0.5, 0 a 0.5,0.5 0 1,0 1,0 a 0.5,0.5 0 1,0 -1,0  M 866.5 377 m -2.5, 0 a 2.5,2.5 0 1,0 5,0 a 2.5,2.5 0 1,0 -5,0 M864 377 C 810.8 377, 812 539, 862 539 M 874 539 m -1, 0 a 1,1 0 1,0 2,0 a 1,1 0 1,0 -2,0 M 874 539 m -0.5, 0 a 0.5,0.5 0 1,0 1,0 a 0.5,0.5 0 1,0 -1,0  M874 539 L874 539 862 539 M868 545 L868 545 868 533" id="h1892832368" class="r"></path></g><g class="hrs"></g><g class="ts"><svg width="204.48" height="100" x="1202" y="126" id="h4144917450" class="t"><rect height="40" width="204.48" class="th"></rect><text x="13" y="25" class="tht">Formations</text><rect height="60" width="204.48" class="t-bg"></rect><text x="13" y="61" class="tf pk">FormationID<tspan x="191.48" class="ty">INTEGER</tspan></text><path d="M7,14A2,2 0 0,1 5,12A2,2 0 0,1 7,10A2,2 0 0,1 9,12A2,2 0 0,1 7,14M12.65,10C11.83,7.67 9.61,6 7, 6A6, 6 0 0, 0 1, 12A6, 6 0 0, 0 7, 18C9.61, 18 11.83, 16.33 12.65, 14H17V18H21V14H23V10H12.65Z" class="i pk" transform="translate(118.14210937499999, 48) scale(0.65)"></path><text x="13" y="86" class="tf">NomFormation<tspan x="191.48" class="ty">VARCHAR(25)</tspan></text></svg><svg width="205.15" height="125" x="877" y="75" id="h3888435860" class="t"><rect height="40" width="205.15" class="th"></rect><text x="13" y="25" class="tht">Promotions</text><rect height="85" width="205.15" class="t-bg"></rect><text x="13" y="61" class="tf pk">PromotionID<tspan x="192.15" class="ty">INTEGER</tspan></text><path d="M7,14A2,2 0 0,1 5,12A2,2 0 0,1 7,10A2,2 0 0,1 9,12A2,2 0 0,1 7,14M12.65,10C11.83,7.67 9.61,6 7, 6A6, 6 0 0, 0 1, 12A6, 6 0 0, 0 7, 18C9.61, 18 11.83, 16.33 12.65, 14H17V18H21V14H23V10H12.65Z" class="i pk" transform="translate(118.812109375, 48) scale(0.65)"></path><text x="13" y="86" class="tf">NomPromotion<tspan x="192.15" class="ty">VARCHAR(25)</tspan></text><text x="13" y="111" class="tf pk">FormationID<tspan x="192.15" class="ty">INTEGER</tspan></text><path d="M7,14A2,2 0 0,1 5,12A2,2 0 0,1 7,10A2,2 0 0,1 9,12A2,2 0 0,1 7,14M12.65,10C11.83,7.67 9.61,6 7, 6A6, 6 0 0, 0 1, 12A6, 6 0 0, 0 7, 18C9.61, 18 11.83, 16.33 12.65, 14H17V18H21V14H23V10H12.65Z" class="i pk" transform="translate(118.812109375, 98) scale(0.65)"></path></svg><svg width="179.15" height="100" x="1190" y="582" id="h2668841570" class="t"><rect height="40" width="179.15" class="th"></rect><text x="13" y="25" class="tht">Rangs</text><rect height="60" width="179.15" class="t-bg"></rect><text x="13" y="61" class="tf pk">RangID<tspan x="166.15" class="ty">INTEGER</tspan></text><path d="M7,14A2,2 0 0,1 5,12A2,2 0 0,1 7,10A2,2 0 0,1 9,12A2,2 0 0,1 7,14M12.65,10C11.83,7.67 9.61,6 7, 6A6, 6 0 0, 0 1, 12A6, 6 0 0, 0 7, 18C9.61, 18 11.83, 16.33 12.65, 14H17V18H21V14H23V10H12.65Z" class="i pk" transform="translate(92.812109375, 48) scale(0.65)"></path><text x="13" y="86" class="tf">NomRang<tspan x="166.15" class="ty">VARCHAR(25)</tspan></text></svg><svg width="200.49" height="175" x="874" y="482" id="h2399746903" class="t"><rect height="40" width="200.49" class="th"></rect><text x="13" y="25" class="tht">Usagers</text><rect height="135" width="200.49" class="t-bg"></rect><text x="13" y="61" class="tf pk">UsagerID<tspan x="187.49" class="ty">VARCHAR(50)</tspan></text><path d="M7,14A2,2 0 0,1 5,12A2,2 0 0,1 7,10A2,2 0 0,1 9,12A2,2 0 0,1 7,14M12.65,10C11.83,7.67 9.61,6 7, 6A6, 6 0 0, 0 1, 12A6, 6 0 0, 0 7, 18C9.61, 18 11.83, 16.33 12.65, 14H17V18H21V14H23V10H12.65Z" class="i pk" transform="translate(88.36500000000001, 48) scale(0.65)"></path><text x="13" y="86" class="tf">MotDePasse<tspan x="187.49" class="ty">VARCHAR(255)</tspan></text><text x="13" y="111" class="tf">Nom<tspan x="187.49" class="ty">VARCHAR(25)</tspan></text><text x="13" y="136" class="tf">Prenom<tspan x="187.49" class="ty">VARCHAR(25)</tspan></text><text x="13" y="161" class="tf pk">RangID<tspan x="187.49" class="ty">INTEGER</tspan></text><path d="M7,14A2,2 0 0,1 5,12A2,2 0 0,1 7,10A2,2 0 0,1 9,12A2,2 0 0,1 7,14M12.65,10C11.83,7.67 9.61,6 7, 6A6, 6 0 0, 0 1, 12A6, 6 0 0, 0 7, 18C9.61, 18 11.83, 16.33 12.65, 14H17V18H21V14H23V10H12.65Z" class="i pk" transform="translate(114.15210937500001, 148) scale(0.65)"></path></svg><svg width="177.14" height="100" x="567" y="579" id="h669981274" class="t"><rect height="40" width="177.14" class="th"></rect><text x="13" y="25" class="tht">Salles</text><rect height="60" width="177.14" class="t-bg"></rect><text x="13" y="61" class="tf pk">SalleID<tspan x="164.14" class="ty">INTEGER</tspan></text><path d="M7,14A2,2 0 0,1 5,12A2,2 0 0,1 7,10A2,2 0 0,1 9,12A2,2 0 0,1 7,14M12.65,10C11.83,7.67 9.61,6 7, 6A6, 6 0 0, 0 1, 12A6, 6 0 0, 0 7, 18C9.61, 18 11.83, 16.33 12.65, 14H17V18H21V14H23V10H12.65Z" class="i pk" transform="translate(90.80210937499999, 48) scale(0.65)"></path><text x="13" y="86" class="tf">NomSalle<tspan x="164.14" class="ty">VARCHAR(10)</tspan></text></svg><svg width="176.48" height="100" x="561" y="401" id="h2285590541" class="t"><rect height="40" width="176.48" class="th"></rect><text x="13" y="25" class="tht">TypeCours</text><rect height="60" width="176.48" class="t-bg"></rect><text x="13" y="61" class="tf pk">TypeID<tspan x="163.48" class="ty">INTEGER</tspan></text><path d="M7,14A2,2 0 0,1 5,12A2,2 0 0,1 7,10A2,2 0 0,1 9,12A2,2 0 0,1 7,14M12.65,10C11.83,7.67 9.61,6 7, 6A6, 6 0 0, 0 1, 12A6, 6 0 0, 0 7, 18C9.61, 18 11.83, 16.33 12.65, 14H17V18H21V14H23V10H12.65Z" class="i pk" transform="translate(90.14210937499999, 48) scale(0.65)"></path><text x="13" y="86" class="tf">NomType<tspan x="163.48" class="ty">VARCHAR(10)</tspan></text></svg><svg width="207.16" height="150" x="564" y="74" id="h3700180878" class="t"><rect height="40" width="207.16" class="th"></rect><text x="13" y="25" class="tht">Matieres</text><rect height="110" width="207.16" class="t-bg"></rect><text x="13" y="61" class="tf pk">MatiereID<tspan x="194.16" class="ty">INTEGER</tspan></text><path d="M7,14A2,2 0 0,1 5,12A2,2 0 0,1 7,10A2,2 0 0,1 9,12A2,2 0 0,1 7,14M12.65,10C11.83,7.67 9.61,6 7, 6A6, 6 0 0, 0 1, 12A6, 6 0 0, 0 7, 18C9.61, 18 11.83, 16.33 12.65, 14H17V18H21V14H23V10H12.65Z" class="i pk" transform="translate(120.822109375, 48) scale(0.65)"></path><text x="13" y="86" class="tf">NomMatiere<tspan x="194.16" class="ty">VARCHAR(20)</tspan></text><text x="13" y="111" class="tf">CouleurMatiere<tspan x="194.16" class="ty">VARCHAR(10)</tspan></text><text x="13" y="136" class="tf pk">PromotionID<tspan x="194.16" class="ty">INTEGER</tspan></text><path d="M7,14A2,2 0 0,1 5,12A2,2 0 0,1 7,10A2,2 0 0,1 9,12A2,2 0 0,1 7,14M12.65,10C11.83,7.67 9.61,6 7, 6A6, 6 0 0, 0 1, 12A6, 6 0 0, 0 7, 18C9.61, 18 11.83, 16.33 12.65, 14H17V18H21V14H23V10H12.65Z" class="i pk" transform="translate(120.822109375, 123) scale(0.65)"></path></svg><svg width="195.81" height="250" x="229" y="356" id="h1478946853" class="t"><rect height="40" width="195.81" class="th"></rect><text x="13" y="25" class="tht">Cours</text><rect height="210" width="195.81" class="t-bg"></rect><text x="13" y="61" class="tf pk">CourID<tspan x="182.81" class="ty">INTEGER</tspan></text><path d="M7,14A2,2 0 0,1 5,12A2,2 0 0,1 7,10A2,2 0 0,1 9,12A2,2 0 0,1 7,14M12.65,10C11.83,7.67 9.61,6 7, 6A6, 6 0 0, 0 1, 12A6, 6 0 0, 0 7, 18C9.61, 18 11.83, 16.33 12.65, 14H17V18H21V14H23V10H12.65Z" class="i pk" transform="translate(109.472109375, 48) scale(0.65)"></path><text x="13" y="86" class="tf">DateCour<tspan x="182.81" class="ty">VARCHAR(30)</tspan></text><text x="13" y="111" class="tf">HeureDebut<tspan x="182.81" class="ty">TIME</tspan></text><text x="13" y="136" class="tf">HeureFin<tspan x="182.81" class="ty">TIME</tspan></text><text x="13" y="161" class="tf pk">MatiereID<tspan x="182.81" class="ty">INTEGER</tspan></text><path d="M7,14A2,2 0 0,1 5,12A2,2 0 0,1 7,10A2,2 0 0,1 9,12A2,2 0 0,1 7,14M12.65,10C11.83,7.67 9.61,6 7, 6A6, 6 0 0, 0 1, 12A6, 6 0 0, 0 7, 18C9.61, 18 11.83, 16.33 12.65, 14H17V18H21V14H23V10H12.65Z" class="i pk" transform="translate(109.472109375, 148) scale(0.65)"></path><text x="13" y="186" class="tf pk">UsagerID<tspan x="182.81" class="ty">VARCHAR(50)</tspan></text><path d="M7,14A2,2 0 0,1 5,12A2,2 0 0,1 7,10A2,2 0 0,1 9,12A2,2 0 0,1 7,14M12.65,10C11.83,7.67 9.61,6 7, 6A6, 6 0 0, 0 1, 12A6, 6 0 0, 0 7, 18C9.61, 18 11.83, 16.33 12.65, 14H17V18H21V14H23V10H12.65Z" class="i pk" transform="translate(83.685, 173) scale(0.65)"></path><text x="13" y="211" class="tf pk">TypeID<tspan x="182.81" class="ty">INTEGER</tspan></text><path d="M7,14A2,2 0 0,1 5,12A2,2 0 0,1 7,10A2,2 0 0,1 9,12A2,2 0 0,1 7,14M12.65,10C11.83,7.67 9.61,6 7, 6A6, 6 0 0, 0 1, 12A6, 6 0 0, 0 7, 18C9.61, 18 11.83, 16.33 12.65, 14H17V18H21V14H23V10H12.65Z" class="i pk" transform="translate(109.472109375, 198) scale(0.65)"></path><text x="13" y="236" class="tf pk">SalleID<tspan x="182.81" class="ty">INTEGER</tspan></text><path d="M7,14A2,2 0 0,1 5,12A2,2 0 0,1 7,10A2,2 0 0,1 9,12A2,2 0 0,1 7,14M12.65,10C11.83,7.67 9.61,6 7, 6A6, 6 0 0, 0 1, 12A6, 6 0 0, 0 7, 18C9.61, 18 11.83, 16.33 12.65, 14H17V18H21V14H23V10H12.65Z" class="i pk" transform="translate(109.472109375, 223) scale(0.65)"></path></svg><svg width="195.81" height="100" x="876" y="295" id="h488228281" class="t"><rect height="40" width="195.81" class="th"></rect><text x="13" y="25" class="tht">Appartient</text><rect height="60" width="195.81" class="t-bg"></rect><text x="13" y="61" class="tf pk">PromotionID<tspan x="182.81" class="ty">INTEGER</tspan></text><path d="M7,14A2,2 0 0,1 5,12A2,2 0 0,1 7,10A2,2 0 0,1 9,12A2,2 0 0,1 7,14M12.65,10C11.83,7.67 9.61,6 7, 6A6, 6 0 0, 0 1, 12A6, 6 0 0, 0 7, 18C9.61, 18 11.83, 16.33 12.65, 14H17V18H21V14H23V10H12.65Z" class="i pk" transform="translate(109.472109375, 48) scale(0.65)"></path><text x="13" y="86" class="tf pk">UsagerID<tspan x="182.81" class="ty">VARCHAR(50)</tspan></text><path d="M7,14A2,2 0 0,1 5,12A2,2 0 0,1 7,10A2,2 0 0,1 9,12A2,2 0 0,1 7,14M12.65,10C11.83,7.67 9.61,6 7, 6A6, 6 0 0, 0 1, 12A6, 6 0 0, 0 7, 18C9.61, 18 11.83, 16.33 12.65, 14H17V18H21V14H23V10H12.65Z" class="i pk" transform="translate(83.685, 73) scale(0.65)"></path></svg></g></g></svg>