<svg class="diagram-root" style="background: #f5f6f6" xmlns="http://www.w3.org/2000/svg" xmlns:xlink="http://www.w3.org/1999/xlink"><style>.diagram-root { font-family: "Helvetica Neue", sans-serif; font-size: 12px; } .t { overflow: visible; } .t-bg { y: 40; fill: #fff;   } .th { fill: #005aa0;   } .tht { fill: #fff; font-size: 14px;  } .tf { fill: #323c46; overflow: visible; } .tf.pk { fill: #005aa0; font-weight: bold; } .tf.fk { font-weight: bold; } .ty { fill: #adb1b5; font-weight: normal; text-anchor: end; } .r { fill: transparent; stroke: #c3c3c3; stroke-width: 1; } .l { stroke: 1; } .i { fill: #c2c7ce; stroke: #c2c7ce; } .i.ix { fill: #afb3b6; stroke: #000; } .fa { fill: transparent; overflow: visible; } .fa .bg.hover { fill: #f7f7f7; } .c { cy: 12; r: 4; stroke: #d2d2dc; fill: #d2d2dc; } .hr { fill: transparent; stroke: #323c46; stroke-opacity: 0.035; stroke-width: 13; } .dc { stroke: #fa5a3c; fill: #fa5a3c; } .x { stroke: white; stroke-width: 1; } .hl .th { fill: #1b9bff; } .hl .tht {  } .fhl .bg { fill: #e7f4ff; } .fhls .bg {  } .r.hl { stroke: #1b9bff; } .dim { opacity: 0.25; }</style><g class="drawing-wrapper" transform="translate(-280.33333333333326, -90) scale(1,1)"><g class="rs"><path d="M 1473.15 301 m -1, 0 a 1,1 0 1,0 2,0 a 1,1 0 1,0 -2,0 M 1473.15 301 m -0.5, 0 a 0.5,0.5 0 1,0 1,0 a 0.5,0.5 0 1,0 -1,0  M1473.15 301 L1473.15 301 1480.15 301 M 1473.15 307 m -1, 0 a 1,1 0 1,0 2,0 a 1,1 0 1,0 -2,0 M 1473.15 307 m -0.5, 0 a 0.5,0.5 0 1,0 1,0 a 0.5,0.5 0 1,0 -1,0  M1473.15 307 L1473.15 307 1480.15 301 1473.15 295 M 1473.15 295 m -1, 0 a 1,1 0 1,0 2,0 a 1,1 0 1,0 -2,0 M 1473.15 295 m -0.5, 0 a 0.5,0.5 0 1,0 1,0 a 0.5,0.5 0 1,0 -1,0  M 1482.65 301 m -2.5, 0 a 2.5,2.5 0 1,0 5,0 a 2.5,2.5 0 1,0 -5,0 M1485.15 301 Q 1501.37 301, 1517.58 301.25 T 1550 301.5 M 1562 301.5 m -1, 0 a 1,1 0 1,0 2,0 a 1,1 0 1,0 -2,0 M 1562 301.5 m -0.5, 0 a 0.5,0.5 0 1,0 1,0 a 0.5,0.5 0 1,0 -1,0  M1562 301.5 L1562 301.5 1550 301.5 M1556 307.5 L1556 307.5 1556 295.5" id="h2328610567" class="r"></path><path d="M 886.99 610.5 m -1, 0 a 1,1 0 1,0 2,0 a 1,1 0 1,0 -2,0 M 886.99 610.5 m -0.5, 0 a 0.5,0.5 0 1,0 1,0 a 0.5,0.5 0 1,0 -1,0  M886.99 610.5 L886.99 610.5 893.99 610.5 M 886.99 616.5 m -1, 0 a 1,1 0 1,0 2,0 a 1,1 0 1,0 -2,0 M 886.99 616.5 m -0.5, 0 a 0.5,0.5 0 1,0 1,0 a 0.5,0.5 0 1,0 -1,0  M886.99 616.5 L886.99 616.5 893.99 610.5 886.99 604.5 M 886.99 604.5 m -1, 0 a 1,1 0 1,0 2,0 a 1,1 0 1,0 -2,0 M 886.99 604.5 m -0.5, 0 a 0.5,0.5 0 1,0 1,0 a 0.5,0.5 0 1,0 -1,0  M 896.49 610.5 m -2.5, 0 a 2.5,2.5 0 1,0 5,0 a 2.5,2.5 0 1,0 -5,0 M898.99 610.5 Q 916.62 610.5, 934.25 610.34 T 969.5 610.17 M 981.5 610.17 m -1, 0 a 1,1 0 1,0 2,0 a 1,1 0 1,0 -2,0 M 981.5 610.17 m -0.5, 0 a 0.5,0.5 0 1,0 1,0 a 0.5,0.5 0 1,0 -1,0  M981.5 610.17 L981.5 610.17 969.5 610.17 M975.5 616.17 L975.5 616.17 975.5 604.17" id="h3475528290" class="r"></path><path d="M 894.16 252 m -1, 0 a 1,1 0 1,0 2,0 a 1,1 0 1,0 -2,0 M 894.16 252 m -0.5, 0 a 0.5,0.5 0 1,0 1,0 a 0.5,0.5 0 1,0 -1,0  M894.16 252 L894.16 252 901.16 252 M 894.16 258 m -1, 0 a 1,1 0 1,0 2,0 a 1,1 0 1,0 -2,0 M 894.16 258 m -0.5, 0 a 0.5,0.5 0 1,0 1,0 a 0.5,0.5 0 1,0 -1,0  M894.16 258 L894.16 258 901.16 252 894.16 246 M 894.16 246 m -1, 0 a 1,1 0 1,0 2,0 a 1,1 0 1,0 -2,0 M 894.16 246 m -0.5, 0 a 0.5,0.5 0 1,0 1,0 a 0.5,0.5 0 1,0 -1,0  M 903.66 252 m -2.5, 0 a 2.5,2.5 0 1,0 5,0 a 2.5,2.5 0 1,0 -5,0 M906.16 252 Q 993.62 252, 1081.08 251.5 T 1256 251 M 1268 251 m -1, 0 a 1,1 0 1,0 2,0 a 1,1 0 1,0 -2,0 M 1268 251 m -0.5, 0 a 0.5,0.5 0 1,0 1,0 a 0.5,0.5 0 1,0 -1,0  M1268 251 L1268 251 1256 251 M1262 257 L1262 257 1262 245" id="h1640493524" class="r"></path><path d="M 498.14 483.83 m -1, 0 a 1,1 0 1,0 2,0 a 1,1 0 1,0 -2,0 M 498.14 483.83 m -0.5, 0 a 0.5,0.5 0 1,0 1,0 a 0.5,0.5 0 1,0 -1,0  M498.14 483.83 L498.14 483.83 505.14 483.83 M 498.14 489.83 m -1, 0 a 1,1 0 1,0 2,0 a 1,1 0 1,0 -2,0 M 498.14 489.83 m -0.5, 0 a 0.5,0.5 0 1,0 1,0 a 0.5,0.5 0 1,0 -1,0  M498.14 489.83 L498.14 489.83 505.14 483.83 498.14 477.83 M 498.14 477.83 m -1, 0 a 1,1 0 1,0 2,0 a 1,1 0 1,0 -2,0 M 498.14 477.83 m -0.5, 0 a 0.5,0.5 0 1,0 1,0 a 0.5,0.5 0 1,0 -1,0  M 507.64 483.83 m -2.5, 0 a 2.5,2.5 0 1,0 5,0 a 2.5,2.5 0 1,0 -5,0 M510.14 483.83 Q 551.36 483.83, 592.57 330.42 T 675 177 M 687 177 m -1, 0 a 1,1 0 1,0 2,0 a 1,1 0 1,0 -2,0 M 687 177 m -0.5, 0 a 0.5,0.5 0 1,0 1,0 a 0.5,0.5 0 1,0 -1,0  M687 177 L687 177 675 177 M681 183 L681 183 681 171" id="h556085257" class="r"></path><path d="M 498.14 508.83 m -1, 0 a 1,1 0 1,0 2,0 a 1,1 0 1,0 -2,0 M 498.14 508.83 m -0.5, 0 a 0.5,0.5 0 1,0 1,0 a 0.5,0.5 0 1,0 -1,0  M498.14 508.83 L498.14 508.83 505.14 508.83 M 498.14 514.8299999999999 m -1, 0 a 1,1 0 1,0 2,0 a 1,1 0 1,0 -2,0 M 498.14 514.8299999999999 m -0.5, 0 a 0.5,0.5 0 1,0 1,0 a 0.5,0.5 0 1,0 -1,0  M498.14 514.8299999999999 L498.14 514.8299999999999 505.14 508.83 498.14 502.83 M 498.14 502.83 m -1, 0 a 1,1 0 1,0 2,0 a 1,1 0 1,0 -2,0 M 498.14 502.83 m -0.5, 0 a 0.5,0.5 0 1,0 1,0 a 0.5,0.5 0 1,0 -1,0  M 507.64 508.83 m -2.5, 0 a 2.5,2.5 0 1,0 5,0 a 2.5,2.5 0 1,0 -5,0 M510.14 508.83 Q 551.23 508.83, 592.32 509.67 T 674.5 510.5 M 686.5 510.5 m -1, 0 a 1,1 0 1,0 2,0 a 1,1 0 1,0 -2,0 M 686.5 510.5 m -0.5, 0 a 0.5,0.5 0 1,0 1,0 a 0.5,0.5 0 1,0 -1,0  M686.5 510.5 L686.5 510.5 674.5 510.5 M680.5 516.5 L680.5 516.5 680.5 504.5" id="h4182562984" class="r"></path><path d="M 498.14 533.8299999999999 m -1, 0 a 1,1 0 1,0 2,0 a 1,1 0 1,0 -2,0 M 498.14 533.8299999999999 m -0.5, 0 a 0.5,0.5 0 1,0 1,0 a 0.5,0.5 0 1,0 -1,0  M498.14 533.8299999999999 L498.14 533.8299999999999 505.14 533.8299999999999 M 498.14 539.8299999999999 m -1, 0 a 1,1 0 1,0 2,0 a 1,1 0 1,0 -2,0 M 498.14 539.8299999999999 m -0.5, 0 a 0.5,0.5 0 1,0 1,0 a 0.5,0.5 0 1,0 -1,0  M498.14 539.8299999999999 L498.14 539.8299999999999 505.14 533.8299999999999 498.14 527.8299999999999 M 498.14 527.8299999999999 m -1, 0 a 1,1 0 1,0 2,0 a 1,1 0 1,0 -2,0 M 498.14 527.8299999999999 m -0.5, 0 a 0.5,0.5 0 1,0 1,0 a 0.5,0.5 0 1,0 -1,0  M 507.64 533.8299999999999 m -2.5, 0 a 2.5,2.5 0 1,0 5,0 a 2.5,2.5 0 1,0 -5,0 M510.14 533.8299999999999 Q 554.28 533.8299999999999, 598.41 619.72 T 686.68 705.62 M 698.68 705.62 m -1, 0 a 1,1 0 1,0 2,0 a 1,1 0 1,0 -2,0 M 698.68 705.62 m -0.5, 0 a 0.5,0.5 0 1,0 1,0 a 0.5,0.5 0 1,0 -1,0  M698.68 705.62 L698.68 705.62 686.68 705.62 M692.68 711.62 L692.68 711.62 692.68 699.62" id="h1585382647" class="r"></path><path d="M 498.14 558.8299999999999 m -1, 0 a 1,1 0 1,0 2,0 a 1,1 0 1,0 -2,0 M 498.14 558.8299999999999 m -0.5, 0 a 0.5,0.5 0 1,0 1,0 a 0.5,0.5 0 1,0 -1,0  M498.14 558.8299999999999 L498.14 558.8299999999999 505.14 558.8299999999999 M 498.14 564.8299999999999 m -1, 0 a 1,1 0 1,0 2,0 a 1,1 0 1,0 -2,0 M 498.14 564.8299999999999 m -0.5, 0 a 0.5,0.5 0 1,0 1,0 a 0.5,0.5 0 1,0 -1,0  M498.14 564.8299999999999 L498.14 564.8299999999999 505.14 558.8299999999999 498.14 552.8299999999999 M 498.14 552.8299999999999 m -1, 0 a 1,1 0 1,0 2,0 a 1,1 0 1,0 -2,0 M 498.14 552.8299999999999 m -0.5, 0 a 0.5,0.5 0 1,0 1,0 a 0.5,0.5 0 1,0 -1,0  M 507.64 558.8299999999999 m -2.5, 0 a 2.5,2.5 0 1,0 5,0 a 2.5,2.5 0 1,0 -5,0 M510.14 558.8299999999999 Q 553.96 558.8299999999999, 597.79 692.24 T 685.44 825.65 M 697.44 825.65 m -1, 0 a 1,1 0 1,0 2,0 a 1,1 0 1,0 -2,0 M 697.44 825.65 m -0.5, 0 a 0.5,0.5 0 1,0 1,0 a 0.5,0.5 0 1,0 -1,0  M697.44 825.65 L697.44 825.65 685.44 825.65 M691.44 831.65 L691.44 831.65 691.44 819.65" id="h840439881" class="r"></path><path d="M 1175.81 403 m -1, 0 a 1,1 0 1,0 2,0 a 1,1 0 1,0 -2,0 M 1175.81 403 m -0.5, 0 a 0.5,0.5 0 1,0 1,0 a 0.5,0.5 0 1,0 -1,0  M1175.81 403 L1175.81 403 1187.81 403 M 1175.81 409 m -1, 0 a 1,1 0 1,0 2,0 a 1,1 0 1,0 -2,0 M 1175.81 409 m -0.5, 0 a 0.5,0.5 0 1,0 1,0 a 0.5,0.5 0 1,0 -1,0  M1175.81 409 L1175.81 409 1182.81 403 1175.81 397 M 1175.81 397 m -1, 0 a 1,1 0 1,0 2,0 a 1,1 0 1,0 -2,0 M 1175.81 397 m -0.5, 0 a 0.5,0.5 0 1,0 1,0 a 0.5,0.5 0 1,0 -1,0  M1187.81 403 Q 1204.86 403, 1221.91 327 T 1256 251 M 1268 251 m -1, 0 a 1,1 0 1,0 2,0 a 1,1 0 1,0 -2,0 M 1268 251 m -0.5, 0 a 0.5,0.5 0 1,0 1,0 a 0.5,0.5 0 1,0 -1,0  M1268 251 L1268 251 1256 251 M 1268 257 m -1, 0 a 1,1 0 1,0 2,0 a 1,1 0 1,0 -2,0 M 1268 257 m -0.5, 0 a 0.5,0.5 0 1,0 1,0 a 0.5,0.5 0 1,0 -1,0  M1268 257 L1268 257 1261 251 1268 245 M 1268 245 m -1, 0 a 1,1 0 1,0 2,0 a 1,1 0 1,0 -2,0 M 1268 245 m -0.5, 0 a 0.5,0.5 0 1,0 1,0 a 0.5,0.5 0 1,0 -1,0 " id="h1583878840" class="r"></path><path d="M 980 428 m -1, 0 a 1,1 0 1,0 2,0 a 1,1 0 1,0 -2,0 M 980 428 m -0.5, 0 a 0.5,0.5 0 1,0 1,0 a 0.5,0.5 0 1,0 -1,0  M980 428 L980 428 968 428 M 980 434 m -1, 0 a 1,1 0 1,0 2,0 a 1,1 0 1,0 -2,0 M 980 434 m -0.5, 0 a 0.5,0.5 0 1,0 1,0 a 0.5,0.5 0 1,0 -1,0  M980 434 L980 434 973 428 980 422 M 980 422 m -1, 0 a 1,1 0 1,0 2,0 a 1,1 0 1,0 -2,0 M 980 422 m -0.5, 0 a 0.5,0.5 0 1,0 1,0 a 0.5,0.5 0 1,0 -1,0  M968 428 Q 950.75 428, 933.5 469.25 T 898.99 510.5 M 886.99 510.5 m -1, 0 a 1,1 0 1,0 2,0 a 1,1 0 1,0 -2,0 M 886.99 510.5 m -0.5, 0 a 0.5,0.5 0 1,0 1,0 a 0.5,0.5 0 1,0 -1,0  M886.99 510.5 L886.99 510.5 898.99 510.5 M 886.99 516.5 m -1, 0 a 1,1 0 1,0 2,0 a 1,1 0 1,0 -2,0 M 886.99 516.5 m -0.5, 0 a 0.5,0.5 0 1,0 1,0 a 0.5,0.5 0 1,0 -1,0  M886.99 516.5 L886.99 516.5 893.99 510.5 886.99 504.5 M 886.99 504.5 m -1, 0 a 1,1 0 1,0 2,0 a 1,1 0 1,0 -2,0 M 886.99 504.5 m -0.5, 0 a 0.5,0.5 0 1,0 1,0 a 0.5,0.5 0 1,0 -1,0 " id="h1892832368" class="r"></path><path d="M 686.5 368.5 m -1, 0 a 1,1 0 1,0 2,0 a 1,1 0 1,0 -2,0 M 686.5 368.5 m -0.5, 0 a 0.5,0.5 0 1,0 1,0 a 0.5,0.5 0 1,0 -1,0  M686.5 368.5 L686.5 368.5 674.5 368.5 M 686.5 374.5 m -1, 0 a 1,1 0 1,0 2,0 a 1,1 0 1,0 -2,0 M 686.5 374.5 m -0.5, 0 a 0.5,0.5 0 1,0 1,0 a 0.5,0.5 0 1,0 -1,0  M686.5 374.5 L686.5 374.5 679.5 368.5 686.5 362.5 M 686.5 362.5 m -1, 0 a 1,1 0 1,0 2,0 a 1,1 0 1,0 -2,0 M 686.5 362.5 m -0.5, 0 a 0.5,0.5 0 1,0 1,0 a 0.5,0.5 0 1,0 -1,0  M674.5 368.5 C 624.5 368.5, 624.2 177, 675 177 M 687 177 m -1, 0 a 1,1 0 1,0 2,0 a 1,1 0 1,0 -2,0 M 687 177 m -0.5, 0 a 0.5,0.5 0 1,0 1,0 a 0.5,0.5 0 1,0 -1,0  M687 177 L687 177 675 177 M 687 183 m -1, 0 a 1,1 0 1,0 2,0 a 1,1 0 1,0 -2,0 M 687 183 m -0.5, 0 a 0.5,0.5 0 1,0 1,0 a 0.5,0.5 0 1,0 -1,0  M687 183 L687 183 680 177 687 171 M 687 171 m -1, 0 a 1,1 0 1,0 2,0 a 1,1 0 1,0 -2,0 M 687 171 m -0.5, 0 a 0.5,0.5 0 1,0 1,0 a 0.5,0.5 0 1,0 -1,0 " id="h2335290988" class="r"></path><path d="M 686.5 393.5 m -1, 0 a 1,1 0 1,0 2,0 a 1,1 0 1,0 -2,0 M 686.5 393.5 m -0.5, 0 a 0.5,0.5 0 1,0 1,0 a 0.5,0.5 0 1,0 -1,0  M686.5 393.5 L686.5 393.5 674.5 393.5 M 686.5 399.5 m -1, 0 a 1,1 0 1,0 2,0 a 1,1 0 1,0 -2,0 M 686.5 399.5 m -0.5, 0 a 0.5,0.5 0 1,0 1,0 a 0.5,0.5 0 1,0 -1,0  M686.5 399.5 L686.5 399.5 679.5 393.5 686.5 387.5 M 686.5 387.5 m -1, 0 a 1,1 0 1,0 2,0 a 1,1 0 1,0 -2,0 M 686.5 387.5 m -0.5, 0 a 0.5,0.5 0 1,0 1,0 a 0.5,0.5 0 1,0 -1,0  M674.5 393.5 C 635.5 393.5, 635.5 510.5, 674.5 510.5 M 686.5 510.5 m -1, 0 a 1,1 0 1,0 2,0 a 1,1 0 1,0 -2,0 M 686.5 510.5 m -0.5, 0 a 0.5,0.5 0 1,0 1,0 a 0.5,0.5 0 1,0 -1,0  M686.5 510.5 L686.5 510.5 674.5 510.5 M 686.5 516.5 m -1, 0 a 1,1 0 1,0 2,0 a 1,1 0 1,0 -2,0 M 686.5 516.5 m -0.5, 0 a 0.5,0.5 0 1,0 1,0 a 0.5,0.5 0 1,0 -1,0  M686.5 516.5 L686.5 516.5 679.5 510.5 686.5 504.5 M 686.5 504.5 m -1, 0 a 1,1 0 1,0 2,0 a 1,1 0 1,0 -2,0 M 686.5 504.5 m -0.5, 0 a 0.5,0.5 0 1,0 1,0 a 0.5,0.5 0 1,0 -1,0 " id="h4147743297" class="r"></path></g><g class="hrs"></g><g class="ts"><svg width="205.15" height="125" x="1268" y="194" id="h3888435860" class="t"><rect height="40" width="205.15" class="th"></rect><text x="13" y="25" class="tht">Promotions</text><rect height="85" width="205.15" class="t-bg"></rect><text x="13" y="61" class="tf pk">PromotionID<tspan x="192.15" class="ty">INTEGER</tspan></text><path d="M7,14A2,2 0 0,1 5,12A2,2 0 0,1 7,10A2,2 0 0,1 9,12A2,2 0 0,1 7,14M12.65,10C11.83,7.67 9.61,6 7, 6A6, 6 0 0, 0 1, 12A6, 6 0 0, 0 7, 18C9.61, 18 11.83, 16.33 12.65, 14H17V18H21V14H23V10H12.65Z" class="i pk" transform="translate(118.812109375, 48) scale(0.65)"></path><text x="13" y="86" class="tf">NomPromotion<tspan x="192.15" class="ty">VARCHAR(25)</tspan></text><text x="13" y="111" class="tf pk">FormationID<tspan x="192.15" class="ty">INTEGER</tspan></text><path d="M7,14A2,2 0 0,1 5,12A2,2 0 0,1 7,10A2,2 0 0,1 9,12A2,2 0 0,1 7,14M12.65,10C11.83,7.67 9.61,6 7, 6A6, 6 0 0, 0 1, 12A6, 6 0 0, 0 7, 18C9.61, 18 11.83, 16.33 12.65, 14H17V18H21V14H23V10H12.65Z" class="i pk" transform="translate(118.812109375, 98) scale(0.65)"></path></svg><svg width="179.15" height="100" x="981.5" y="553.17" id="h2668841570" class="t"><rect height="40" width="179.15" class="th"></rect><text x="13" y="25" class="tht">Rangs</text><rect height="60" width="179.15" class="t-bg"></rect><text x="13" y="61" class="tf pk">RangID<tspan x="166.15" class="ty">INTEGER</tspan></text><path d="M7,14A2,2 0 0,1 5,12A2,2 0 0,1 7,10A2,2 0 0,1 9,12A2,2 0 0,1 7,14M12.65,10C11.83,7.67 9.61,6 7, 6A6, 6 0 0, 0 1, 12A6, 6 0 0, 0 7, 18C9.61, 18 11.83, 16.33 12.65, 14H17V18H21V14H23V10H12.65Z" class="i pk" transform="translate(92.812109375, 48) scale(0.65)"></path><text x="13" y="86" class="tf">NomRang<tspan x="166.15" class="ty">VARCHAR(25)</tspan></text></svg><svg width="200.49" height="175" x="686.5" y="453.5" id="h2399746903" class="t"><rect height="40" width="200.49" class="th"></rect><text x="13" y="25" class="tht">Usagers</text><rect height="135" width="200.49" class="t-bg"></rect><text x="13" y="61" class="tf pk">UsagerID<tspan x="187.49" class="ty">VARCHAR(50)</tspan></text><path d="M7,14A2,2 0 0,1 5,12A2,2 0 0,1 7,10A2,2 0 0,1 9,12A2,2 0 0,1 7,14M12.65,10C11.83,7.67 9.61,6 7, 6A6, 6 0 0, 0 1, 12A6, 6 0 0, 0 7, 18C9.61, 18 11.83, 16.33 12.65, 14H17V18H21V14H23V10H12.65Z" class="i pk" transform="translate(88.36500000000001, 48) scale(0.65)"></path><text x="13" y="86" class="tf">MotDePasse<tspan x="187.49" class="ty">VARCHAR(255)</tspan></text><text x="13" y="111" class="tf">Nom<tspan x="187.49" class="ty">VARCHAR(25)</tspan></text><text x="13" y="136" class="tf">Prenom<tspan x="187.49" class="ty">VARCHAR(25)</tspan></text><text x="13" y="161" class="tf pk">RangID<tspan x="187.49" class="ty">INTEGER</tspan></text><path d="M7,14A2,2 0 0,1 5,12A2,2 0 0,1 7,10A2,2 0 0,1 9,12A2,2 0 0,1 7,14M12.65,10C11.83,7.67 9.61,6 7, 6A6, 6 0 0, 0 1, 12A6, 6 0 0, 0 7, 18C9.61, 18 11.83, 16.33 12.65, 14H17V18H21V14H23V10H12.65Z" class="i pk" transform="translate(114.15210937500001, 148) scale(0.65)"></path></svg><svg width="177.14" height="100" x="697.44" y="768.65" id="h669981274" class="t"><rect height="40" width="177.14" class="th"></rect><text x="13" y="25" class="tht">Salles</text><rect height="60" width="177.14" class="t-bg"></rect><text x="13" y="61" class="tf pk">SalleID<tspan x="164.14" class="ty">INTEGER</tspan></text><path d="M7,14A2,2 0 0,1 5,12A2,2 0 0,1 7,10A2,2 0 0,1 9,12A2,2 0 0,1 7,14M12.65,10C11.83,7.67 9.61,6 7, 6A6, 6 0 0, 0 1, 12A6, 6 0 0, 0 7, 18C9.61, 18 11.83, 16.33 12.65, 14H17V18H21V14H23V10H12.65Z" class="i pk" transform="translate(90.80210937499999, 48) scale(0.65)"></path><text x="13" y="86" class="tf">NomSalle<tspan x="164.14" class="ty">VARCHAR(10)</tspan></text></svg><svg width="176.48" height="100" x="698.68" y="648.62" id="h2285590541" class="t"><rect height="40" width="176.48" class="th"></rect><text x="13" y="25" class="tht">TypeCours</text><rect height="60" width="176.48" class="t-bg"></rect><text x="13" y="61" class="tf pk">TypeID<tspan x="163.48" class="ty">INTEGER</tspan></text><path d="M7,14A2,2 0 0,1 5,12A2,2 0 0,1 7,10A2,2 0 0,1 9,12A2,2 0 0,1 7,14M12.65,10C11.83,7.67 9.61,6 7, 6A6, 6 0 0, 0 1, 12A6, 6 0 0, 0 7, 18C9.61, 18 11.83, 16.33 12.65, 14H17V18H21V14H23V10H12.65Z" class="i pk" transform="translate(90.14210937499999, 48) scale(0.65)"></path><text x="13" y="86" class="tf">NomType<tspan x="163.48" class="ty">VARCHAR(10)</tspan></text></svg><svg width="207.16" height="150" x="687" y="120" id="h3700180878" class="t"><rect height="40" width="207.16" class="th"></rect><text x="13" y="25" class="tht">Matieres</text><rect height="110" width="207.16" class="t-bg"></rect><text x="13" y="61" class="tf pk">MatiereID<tspan x="194.16" class="ty">INTEGER</tspan></text><path d="M7,14A2,2 0 0,1 5,12A2,2 0 0,1 7,10A2,2 0 0,1 9,12A2,2 0 0,1 7,14M12.65,10C11.83,7.67 9.61,6 7, 6A6, 6 0 0, 0 1, 12A6, 6 0 0, 0 7, 18C9.61, 18 11.83, 16.33 12.65, 14H17V18H21V14H23V10H12.65Z" class="i pk" transform="translate(120.822109375, 48) scale(0.65)"></path><text x="13" y="86" class="tf">NomMatiere<tspan x="194.16" class="ty">VARCHAR(20)</tspan></text><text x="13" y="111" class="tf">CouleurMatiere<tspan x="194.16" class="ty">VARCHAR(10)</tspan></text><text x="13" y="136" class="tf pk">PromotionID<tspan x="194.16" class="ty">INTEGER</tspan></text><path d="M7,14A2,2 0 0,1 5,12A2,2 0 0,1 7,10A2,2 0 0,1 9,12A2,2 0 0,1 7,14M12.65,10C11.83,7.67 9.61,6 7, 6A6, 6 0 0, 0 1, 12A6, 6 0 0, 0 7, 18C9.61, 18 11.83, 16.33 12.65, 14H17V18H21V14H23V10H12.65Z" class="i pk" transform="translate(120.822109375, 123) scale(0.65)"></path></svg><svg width="195.81" height="250" x="302.33" y="326.83" id="h1478946853" class="t"><rect height="40" width="195.81" class="th"></rect><text x="13" y="25" class="tht">Cours</text><rect height="210" width="195.81" class="t-bg"></rect><text x="13" y="61" class="tf pk">CourID<tspan x="182.81" class="ty">INTEGER</tspan></text><path d="M7,14A2,2 0 0,1 5,12A2,2 0 0,1 7,10A2,2 0 0,1 9,12A2,2 0 0,1 7,14M12.65,10C11.83,7.67 9.61,6 7, 6A6, 6 0 0, 0 1, 12A6, 6 0 0, 0 7, 18C9.61, 18 11.83, 16.33 12.65, 14H17V18H21V14H23V10H12.65Z" class="i pk" transform="translate(109.472109375, 48) scale(0.65)"></path><text x="13" y="86" class="tf">DateCour<tspan x="182.81" class="ty">VARCHAR(30)</tspan></text><text x="13" y="111" class="tf">HeureDebut<tspan x="182.81" class="ty">TIME</tspan></text><text x="13" y="136" class="tf">HeureFin<tspan x="182.81" class="ty">TIME</tspan></text><text x="13" y="161" class="tf pk">MatiereID<tspan x="182.81" class="ty">INTEGER</tspan></text><path d="M7,14A2,2 0 0,1 5,12A2,2 0 0,1 7,10A2,2 0 0,1 9,12A2,2 0 0,1 7,14M12.65,10C11.83,7.67 9.61,6 7, 6A6, 6 0 0, 0 1, 12A6, 6 0 0, 0 7, 18C9.61, 18 11.83, 16.33 12.65, 14H17V18H21V14H23V10H12.65Z" class="i pk" transform="translate(109.472109375, 148) scale(0.65)"></path><text x="13" y="186" class="tf pk">UsagerID<tspan x="182.81" class="ty">VARCHAR(50)</tspan></text><path d="M7,14A2,2 0 0,1 5,12A2,2 0 0,1 7,10A2,2 0 0,1 9,12A2,2 0 0,1 7,14M12.65,10C11.83,7.67 9.61,6 7, 6A6, 6 0 0, 0 1, 12A6, 6 0 0, 0 7, 18C9.61, 18 11.83, 16.33 12.65, 14H17V18H21V14H23V10H12.65Z" class="i pk" transform="translate(83.685, 173) scale(0.65)"></path><text x="13" y="211" class="tf pk">TypeID<tspan x="182.81" class="ty">INTEGER</tspan></text><path d="M7,14A2,2 0 0,1 5,12A2,2 0 0,1 7,10A2,2 0 0,1 9,12A2,2 0 0,1 7,14M12.65,10C11.83,7.67 9.61,6 7, 6A6, 6 0 0, 0 1, 12A6, 6 0 0, 0 7, 18C9.61, 18 11.83, 16.33 12.65, 14H17V18H21V14H23V10H12.65Z" class="i pk" transform="translate(109.472109375, 198) scale(0.65)"></path><text x="13" y="236" class="tf pk">SalleID<tspan x="182.81" class="ty">INTEGER</tspan></text><path d="M7,14A2,2 0 0,1 5,12A2,2 0 0,1 7,10A2,2 0 0,1 9,12A2,2 0 0,1 7,14M12.65,10C11.83,7.67 9.61,6 7, 6A6, 6 0 0, 0 1, 12A6, 6 0 0, 0 7, 18C9.61, 18 11.83, 16.33 12.65, 14H17V18H21V14H23V10H12.65Z" class="i pk" transform="translate(109.472109375, 223) scale(0.65)"></path></svg><svg width="195.81" height="100" x="980" y="346" id="h488228281" class="t"><rect height="40" width="195.81" class="th"></rect><text x="13" y="25" class="tht">Appartient</text><rect height="60" width="195.81" class="t-bg"></rect><text x="13" y="61" class="tf pk">PromotionID<tspan x="182.81" class="ty">INTEGER</tspan></text><path d="M7,14A2,2 0 0,1 5,12A2,2 0 0,1 7,10A2,2 0 0,1 9,12A2,2 0 0,1 7,14M12.65,10C11.83,7.67 9.61,6 7, 6A6, 6 0 0, 0 1, 12A6, 6 0 0, 0 7, 18C9.61, 18 11.83, 16.33 12.65, 14H17V18H21V14H23V10H12.65Z" class="i pk" transform="translate(109.472109375, 48) scale(0.65)"></path><text x="13" y="86" class="tf pk">UsagerID<tspan x="182.81" class="ty">VARCHAR(50)</tspan></text><path d="M7,14A2,2 0 0,1 5,12A2,2 0 0,1 7,10A2,2 0 0,1 9,12A2,2 0 0,1 7,14M12.65,10C11.83,7.67 9.61,6 7, 6A6, 6 0 0, 0 1, 12A6, 6 0 0, 0 7, 18C9.61, 18 11.83, 16.33 12.65, 14H17V18H21V14H23V10H12.65Z" class="i pk" transform="translate(83.685, 73) scale(0.65)"></path></svg><svg width="195.81" height="100" x="686.5" y="311.5" id="h1573825467" class="t"><rect height="40" width="195.81" class="th"></rect><text x="13" y="25" class="tht">Enseigne</text><rect height="60" width="195.81" class="t-bg"></rect><text x="13" y="61" class="tf pk">MatiereID<tspan x="182.81" class="ty">INTEGER</tspan></text><path d="M7,14A2,2 0 0,1 5,12A2,2 0 0,1 7,10A2,2 0 0,1 9,12A2,2 0 0,1 7,14M12.65,10C11.83,7.67 9.61,6 7, 6A6, 6 0 0, 0 1, 12A6, 6 0 0, 0 7, 18C9.61, 18 11.83, 16.33 12.65, 14H17V18H21V14H23V10H12.65Z" class="i pk" transform="translate(109.472109375, 48) scale(0.65)"></path><text x="13" y="86" class="tf pk">UsagerID<tspan x="182.81" class="ty">VARCHAR(50)</tspan></text><path d="M7,14A2,2 0 0,1 5,12A2,2 0 0,1 7,10A2,2 0 0,1 9,12A2,2 0 0,1 7,14M12.65,10C11.83,7.67 9.61,6 7, 6A6, 6 0 0, 0 1, 12A6, 6 0 0, 0 7, 18C9.61, 18 11.83, 16.33 12.65, 14H17V18H21V14H23V10H12.65Z" class="i pk" transform="translate(83.685, 73) scale(0.65)"></path></svg><svg width="204.48" height="100" x="1562" y="244.5" id="h644563506" class="t"><rect height="40" width="204.48" class="th"></rect><text x="13" y="25" class="tht">Departements</text><rect height="60" width="204.48" class="t-bg"></rect><text x="13" y="61" class="tf pk">FormationID<tspan x="191.48" class="ty">INTEGER</tspan></text><path d="M7,14A2,2 0 0,1 5,12A2,2 0 0,1 7,10A2,2 0 0,1 9,12A2,2 0 0,1 7,14M12.65,10C11.83,7.67 9.61,6 7, 6A6, 6 0 0, 0 1, 12A6, 6 0 0, 0 7, 18C9.61, 18 11.83, 16.33 12.65, 14H17V18H21V14H23V10H12.65Z" class="i pk" transform="translate(118.14210937499999, 48) scale(0.65)"></path><text x="13" y="86" class="tf">NomFormation<tspan x="191.48" class="ty">VARCHAR(25)</tspan></text></svg></g></g></svg>